<svg width="153" height="40" viewBox="0 0 153 40" fill="none" xmlns="http://www.w3.org/2000/svg">
<path d="M0.5 0.5H143C148.247 0.5 152.5 4.7533 152.5 10V39.5H10C4.75329 39.5 0.5 35.2467 0.5 30V0.5Z" fill="black" stroke="white"/>
<path d="M22.9185 28.001V32H9.67383V28.001H22.9185ZM11.3486 7.11719V32H6.22168V7.11719H11.3486ZM21.1924 17.2515V21.1479H9.67383V17.2515H21.1924ZM22.9014 7.11719V11.1333H9.67383V7.11719H22.9014ZM32.8989 28.4966C33.5028 28.4966 34.0382 28.3826 34.5054 28.1548C34.9725 27.9155 35.3371 27.5851 35.5991 27.1636C35.8726 26.7306 36.015 26.2236 36.0264 25.6426H40.6577C40.6463 26.9414 40.2988 28.0978 39.6152 29.1118C38.9316 30.1144 38.0145 30.9062 36.8638 31.4873C35.7131 32.057 34.4256 32.3418 33.0015 32.3418C31.5659 32.3418 30.3127 32.1025 29.2417 31.624C28.1821 31.1455 27.2992 30.4847 26.5928 29.6416C25.8864 28.7871 25.3566 27.7959 25.0034 26.668C24.6502 25.5286 24.4736 24.3096 24.4736 23.0107V22.5151C24.4736 21.2049 24.6502 19.9858 25.0034 18.8579C25.3566 17.7186 25.8864 16.7274 26.5928 15.8843C27.2992 15.0298 28.1821 14.3633 29.2417 13.8848C30.3013 13.4062 31.5431 13.167 32.9673 13.167C34.4826 13.167 35.8099 13.4575 36.9492 14.0386C38.0999 14.6196 39 15.4513 39.6494 16.5337C40.3102 17.6047 40.6463 18.875 40.6577 20.3447H36.0264C36.015 19.7295 35.884 19.1712 35.6333 18.6699C35.394 18.1686 35.0409 17.7699 34.5737 17.4736C34.118 17.166 33.554 17.0122 32.8818 17.0122C32.1641 17.0122 31.5773 17.166 31.1216 17.4736C30.6659 17.7699 30.3127 18.18 30.062 18.7041C29.8114 19.2168 29.6348 19.8035 29.5322 20.4644C29.4411 21.1138 29.3955 21.7974 29.3955 22.5151V23.0107C29.3955 23.7285 29.4411 24.4178 29.5322 25.0786C29.6234 25.7394 29.7943 26.3262 30.0449 26.8389C30.307 27.3516 30.6659 27.756 31.1216 28.0522C31.5773 28.3485 32.1698 28.4966 32.8989 28.4966ZM42.7256 22.9424V22.5835C42.7256 21.2277 42.9193 19.9801 43.3066 18.8408C43.694 17.6901 44.258 16.6932 44.9985 15.8501C45.7391 15.007 46.6506 14.3519 47.7329 13.8848C48.8153 13.4062 50.0571 13.167 51.4585 13.167C52.8599 13.167 54.1074 13.4062 55.2012 13.8848C56.2949 14.3519 57.2121 15.007 57.9526 15.8501C58.7046 16.6932 59.2743 17.6901 59.6616 18.8408C60.049 19.9801 60.2427 21.2277 60.2427 22.5835V22.9424C60.2427 24.2868 60.049 25.5343 59.6616 26.6851C59.2743 27.8244 58.7046 28.8213 57.9526 29.6758C57.2121 30.5189 56.3006 31.174 55.2183 31.6411C54.1359 32.1082 52.894 32.3418 51.4927 32.3418C50.0913 32.3418 48.8438 32.1082 47.75 31.6411C46.6676 31.174 45.7505 30.5189 44.9985 29.6758C44.258 28.8213 43.694 27.8244 43.3066 26.6851C42.9193 25.5343 42.7256 24.2868 42.7256 22.9424ZM47.6475 22.5835V22.9424C47.6475 23.7171 47.7158 24.4406 47.8525 25.1128C47.9893 25.785 48.2057 26.3774 48.502 26.8901C48.8096 27.3914 49.2083 27.7845 49.6982 28.0693C50.1882 28.3542 50.7863 28.4966 51.4927 28.4966C52.1763 28.4966 52.763 28.3542 53.2529 28.0693C53.7428 27.7845 54.1359 27.3914 54.4321 26.8901C54.7284 26.3774 54.9448 25.785 55.0815 25.1128C55.2297 24.4406 55.3037 23.7171 55.3037 22.9424V22.5835C55.3037 21.8315 55.2297 21.1252 55.0815 20.4644C54.9448 19.7922 54.7227 19.1997 54.415 18.687C54.1188 18.1629 53.7257 17.7528 53.2358 17.4565C52.7459 17.1603 52.1535 17.0122 51.4585 17.0122C50.7635 17.0122 50.1711 17.1603 49.6812 17.4565C49.2026 17.7528 48.8096 18.1629 48.502 18.687C48.2057 19.1997 47.9893 19.7922 47.8525 20.4644C47.7158 21.1252 47.6475 21.8315 47.6475 22.5835ZM68.1895 17.3369V32H63.2505V13.5088H67.8818L68.1895 17.3369ZM67.5059 22.105H66.1387C66.1387 20.8175 66.2925 19.6326 66.6001 18.5503C66.9191 17.4565 67.3805 16.5109 67.9844 15.7134C68.5996 14.9045 69.3573 14.2778 70.2573 13.8335C71.1574 13.3892 72.1999 13.167 73.3848 13.167C74.2051 13.167 74.957 13.2923 75.6406 13.543C76.3242 13.7822 76.911 14.1639 77.4009 14.688C77.9022 15.2007 78.2896 15.8729 78.563 16.7046C78.8364 17.5249 78.9731 18.5104 78.9731 19.6611V32H74.0513V20.208C74.0513 19.3649 73.9373 18.7155 73.7095 18.2598C73.4816 17.804 73.1569 17.485 72.7354 17.3027C72.3252 17.1204 71.8296 17.0293 71.2485 17.0293C70.6105 17.0293 70.0522 17.1603 69.5737 17.4224C69.1066 17.6844 68.7192 18.049 68.4116 18.5161C68.104 18.9718 67.8761 19.5073 67.728 20.1226C67.5799 20.7378 67.5059 21.3986 67.5059 22.105ZM78.5117 21.541L76.7515 21.7632C76.7515 20.5555 76.8996 19.4333 77.1958 18.3965C77.5034 17.3597 77.9535 16.4482 78.5459 15.6621C79.1497 14.876 79.896 14.2664 80.7847 13.8335C81.6733 13.3892 82.6987 13.167 83.8608 13.167C84.7495 13.167 85.5584 13.298 86.2876 13.5601C87.0168 13.8107 87.6377 14.2152 88.1504 14.7734C88.6745 15.3203 89.0732 16.0381 89.3467 16.9268C89.6315 17.8154 89.7739 18.9035 89.7739 20.1909V32H84.835V20.1909C84.835 19.3364 84.721 18.687 84.4932 18.2427C84.2767 17.7869 83.9577 17.4736 83.5361 17.3027C83.126 17.1204 82.6361 17.0293 82.0664 17.0293C81.474 17.0293 80.9556 17.1489 80.5112 17.3882C80.0669 17.616 79.6966 17.9351 79.4004 18.3452C79.1042 18.7554 78.882 19.2339 78.7339 19.7808C78.5858 20.3162 78.5117 20.903 78.5117 21.541ZM98.3872 5.75V32H93.4653V5.75H98.3872ZM97.6865 22.105H96.3364C96.3478 20.8175 96.5187 19.6326 96.8491 18.5503C97.1795 17.4565 97.6523 16.5109 98.2676 15.7134C98.8828 14.9045 99.6177 14.2778 100.472 13.8335C101.338 13.3892 102.295 13.167 103.343 13.167C104.255 13.167 105.081 13.298 105.821 13.5601C106.573 13.8107 107.217 14.2209 107.752 14.7905C108.299 15.3488 108.721 16.0837 109.017 16.9951C109.313 17.9066 109.461 19.0117 109.461 20.3105V32H104.505V20.2764C104.505 19.4561 104.386 18.8123 104.146 18.3452C103.919 17.8667 103.583 17.5306 103.138 17.3369C102.705 17.1318 102.17 17.0293 101.532 17.0293C100.825 17.0293 100.222 17.1603 99.7202 17.4224C99.2303 17.6844 98.8372 18.049 98.541 18.5161C98.2448 18.9718 98.0283 19.5073 97.8916 20.1226C97.7549 20.7378 97.6865 21.3986 97.6865 22.105ZM123.185 27.8301V19.5928C123.185 19.0003 123.088 18.4933 122.894 18.0718C122.7 17.6388 122.398 17.3027 121.988 17.0635C121.59 16.8242 121.071 16.7046 120.433 16.7046C119.886 16.7046 119.413 16.8014 119.015 16.9951C118.616 17.1774 118.308 17.4451 118.092 17.7983C117.875 18.1401 117.767 18.5446 117.767 19.0117H112.845C112.845 18.2256 113.028 17.4793 113.392 16.7729C113.757 16.0666 114.286 15.4456 114.981 14.9102C115.676 14.3633 116.502 13.936 117.459 13.6284C118.428 13.3208 119.51 13.167 120.707 13.167C122.142 13.167 123.418 13.4062 124.535 13.8848C125.651 14.3633 126.528 15.0811 127.167 16.0381C127.816 16.9951 128.141 18.1914 128.141 19.627V27.5396C128.141 28.5535 128.203 29.3853 128.329 30.0347C128.454 30.6727 128.636 31.231 128.875 31.7095V32H123.902C123.663 31.4987 123.481 30.8721 123.355 30.1201C123.242 29.3568 123.185 28.5934 123.185 27.8301ZM123.834 20.7378L123.868 23.5234H121.117C120.467 23.5234 119.903 23.5975 119.425 23.7456C118.946 23.8937 118.553 24.1045 118.246 24.3779C117.938 24.64 117.71 24.9476 117.562 25.3008C117.425 25.654 117.357 26.0413 117.357 26.4629C117.357 26.8844 117.454 27.2661 117.647 27.6079C117.841 27.9383 118.12 28.2004 118.485 28.394C118.849 28.5763 119.277 28.6675 119.767 28.6675C120.507 28.6675 121.151 28.5194 121.698 28.2231C122.245 27.9269 122.666 27.5623 122.962 27.1294C123.27 26.6965 123.43 26.2863 123.441 25.8989L124.74 27.9839C124.557 28.451 124.307 28.9352 123.988 29.4365C123.68 29.9378 123.287 30.4106 122.809 30.855C122.33 31.2879 121.755 31.6468 121.083 31.9316C120.41 32.2051 119.613 32.3418 118.69 32.3418C117.516 32.3418 116.451 32.1082 115.494 31.6411C114.549 31.1626 113.797 30.5075 113.238 29.6758C112.691 28.8327 112.418 27.8757 112.418 26.8047C112.418 25.8363 112.6 24.9761 112.965 24.2241C113.329 23.4722 113.865 22.8398 114.571 22.3271C115.289 21.8031 116.183 21.41 117.254 21.1479C118.325 20.8745 119.567 20.7378 120.98 20.7378H123.834ZM137.13 5.75V32H132.191V5.75H137.13ZM146.393 5.75V32H141.454V5.75H146.393Z" fill="white"/>
</svg>
